<svg width="32" height="32" viewBox="0 0 32 32" fill="none" xmlns="http://www.w3.org/2000/svg">
<path d="M26.22 22.4146C25.8508 23.2753 25.3946 24.096 24.8587 24.864C24.1427 25.8866 23.5547 26.5933 23.104 26.9866C22.404 27.6293 21.652 27.96 20.848 27.9786C20.272 27.9786 19.576 27.8146 18.7653 27.4813C17.952 27.1493 17.2053 26.9866 16.5213 26.9866C15.8053 26.9866 15.0373 27.1493 14.2147 27.4813C13.3933 27.8146 12.7293 27.9893 12.2213 28.0053C11.452 28.0386 10.6827 27.7 9.91598 26.9866C9.42665 26.56 8.81465 25.8266 8.07998 24.7893C7.29332 23.684 6.64665 22.3973 6.13998 20.9346C5.59732 19.352 5.32532 17.8213 5.32532 16.3386C5.32532 14.6413 5.69198 13.176 6.42665 11.9493C6.98232 10.9859 7.77671 10.1819 8.73332 9.61462C9.67661 9.04884 10.7534 8.7442 11.8533 8.73195C12.4667 8.73195 13.2707 8.92128 14.2667 9.29462C15.2627 9.66795 15.9027 9.85728 16.1813 9.85728C16.392 9.85728 17.1 9.63462 18.3053 9.19328C19.4427 8.78395 20.4027 8.61462 21.1893 8.68128C23.3227 8.85328 24.924 9.69328 25.9893 11.208C24.0827 12.364 23.14 13.9813 23.1587 16.0573C23.1747 17.6746 23.7627 19.02 24.9147 20.088C25.4239 20.5753 26.0182 20.9653 26.668 21.2386C26.5267 21.648 26.3773 22.0386 26.22 22.4146ZM21.3307 3.17328C21.3307 4.43995 20.8667 5.62395 19.9453 6.71862C18.8307 8.01995 17.484 8.77328 16.024 8.65462C16.0049 8.49534 15.9955 8.33504 15.996 8.17462C15.996 6.95728 16.524 5.65595 17.4667 4.59062C17.936 4.05195 18.5333 3.60262 19.2573 3.24528C19.98 2.89328 20.6627 2.69862 21.3053 2.66528C21.3227 2.83595 21.3307 3.00528 21.3307 3.17328Z" fill="black"/>
</svg>
