<svg width="150" height="100" viewBox="0 0 150 100" fill="none" xmlns="http://www.w3.org/2000/svg">
<path d="M6.42592 46.3783C6.25884 45.7558 6.37144 45.0988 6.73903 44.5513C7.10663 44.0039 7.69922 43.6105 8.38691 43.4576L24.6153 39.8691C24.9601 39.7837 25.3203 39.7617 25.6747 39.8043C26.0291 39.8469 26.3704 39.9534 26.6786 40.1173C26.9867 40.2813 27.2554 40.4995 27.4687 40.7589C27.682 41.0184 27.8357 41.3139 27.9207 41.628C28.0056 41.9421 28.0201 42.2684 27.9632 42.5877C27.9064 42.9069 27.7794 43.2126 27.5897 43.4867C27.4 43.7608 27.1516 43.9977 26.8589 44.1835C26.5663 44.3693 26.2355 44.5001 25.886 44.5683L9.66035 48.1568C9.45214 48.2039 9.23827 48.2275 9.02363 48.2269C8.42426 48.2265 7.8424 48.0441 7.37136 47.7089C6.90031 47.3736 6.56737 46.9051 6.42592 46.3783ZM25.9021 76.4243L10.9204 79.7394C10.2863 79.8806 9.7312 80.2267 9.35971 80.7125C8.98822 81.1983 8.82601 81.7902 8.90365 82.3767C8.98129 82.9631 9.29342 83.5037 9.7812 83.8964C10.269 84.2891 10.8987 84.5069 11.5518 84.5087C11.7673 84.5091 11.982 84.4855 12.1912 84.4386L27.1729 81.1235C27.5223 81.0553 27.8531 80.9245 28.1458 80.7387C28.4384 80.5529 28.6869 80.316 28.8765 80.0419C29.0662 79.7678 29.1932 79.4621 29.2501 79.1429C29.3069 78.8236 29.2924 78.4973 29.2075 78.1832C29.1225 77.8691 28.9689 77.5736 28.7555 77.3142C28.5422 77.0547 28.2735 76.8365 27.9654 76.6726C27.6572 76.5086 27.3159 76.4021 26.9615 76.3595C26.6071 76.3169 26.2469 76.3389 25.9021 76.4243ZM63.458 94.241L58.9902 95.2307C58.3561 95.3719 57.801 95.718 57.4295 96.2038C57.058 96.6895 56.8958 97.2814 56.9734 97.8679C57.0511 98.4544 57.3632 98.9949 57.851 99.3877C58.3388 99.7804 58.9685 99.9982 59.6216 100C59.8362 100.001 60.0501 99.977 60.2583 99.9298L64.7261 98.9426C65.0687 98.8684 65.3917 98.7337 65.6767 98.5463C65.9616 98.3589 66.2028 98.1225 66.3864 97.8505C66.5701 97.5786 66.6925 97.2765 66.7467 96.9617C66.8009 96.6468 66.7859 96.3254 66.7024 96.0158C66.6189 95.7062 66.4686 95.4146 66.2602 95.1577C66.0517 94.9008 65.7893 94.6837 65.4878 94.5188C65.1863 94.3539 64.8519 94.2444 64.5035 94.1968C64.1552 94.1491 63.7999 94.1641 63.458 94.241ZM84.3119 89.6313L71.7915 92.3971C71.1574 92.5383 70.6023 92.8844 70.2308 93.3702C69.8593 93.856 69.6971 94.4479 69.7748 95.0344C69.8524 95.6209 70.1645 96.1614 70.6523 96.5541C71.1401 96.9469 71.7699 97.1646 72.4229 97.1665C72.6375 97.1668 72.8514 97.1433 73.0596 97.0963L85.5747 94.3305C85.9241 94.2623 86.255 94.1315 86.5476 93.9457C86.8402 93.76 87.0887 93.523 87.2784 93.2489C87.468 92.9748 87.595 92.6691 87.6519 92.3499C87.7087 92.0306 87.6942 91.7043 87.6093 91.3902C87.5244 91.0761 87.3707 90.7806 87.1573 90.5212C86.944 90.2617 86.6753 90.0435 86.3672 89.8796C86.0591 89.7156 85.7177 89.6092 85.3633 89.5665C85.0089 89.5239 84.6487 89.5459 84.3039 89.6313H84.3119ZM21.0009 17.5832C21.2164 17.5827 21.431 17.5591 21.6403 17.513L68.3698 7.17824C68.7193 7.11007 69.0501 6.97923 69.3427 6.79346C69.6353 6.60769 69.8838 6.37075 70.0735 6.09666C70.2632 5.82256 70.3902 5.51687 70.447 5.19763C70.5038 4.87839 70.4894 4.55208 70.4044 4.23798C70.3195 3.92389 70.1658 3.62837 69.9525 3.36891C69.7391 3.10944 69.4705 2.89127 69.1623 2.72731C68.8542 2.56334 68.5129 2.4569 68.1585 2.41426C67.8041 2.37163 67.4439 2.39367 67.0991 2.47908L20.3696 12.8114C19.733 12.9506 19.1749 13.2962 18.8012 13.7827C18.4275 14.2692 18.264 14.8628 18.3419 15.451C18.4197 16.0392 18.7334 16.5811 19.2235 16.9741C19.7136 17.3671 20.346 17.5838 21.0009 17.5832ZM76.072 5.41182C76.2875 5.41236 76.5023 5.3888 76.7114 5.34165L79.2262 4.78511C79.5757 4.71693 79.9065 4.58609 80.1991 4.40032C80.4917 4.21455 80.7402 3.97762 80.9299 3.70352C81.1195 3.42943 81.2465 3.12373 81.3034 2.80449C81.3602 2.48525 81.3457 2.15894 81.2608 1.84485C81.1759 1.53075 81.0222 1.23524 80.8088 0.975771C80.5955 0.716302 80.3268 0.49814 80.0187 0.334173C79.7106 0.170206 79.3692 0.0637597 79.0148 0.0211252C78.6605 -0.0215093 78.3002 0.000533044 77.9554 0.0859473L75.4406 0.642489C74.8065 0.783694 74.2514 1.1298 73.8799 1.61559C73.5084 2.10137 73.3462 2.69328 73.4239 3.27976C73.5015 3.86623 73.8136 4.40677 74.3014 4.7995C74.7892 5.19223 75.419 5.41002 76.072 5.41182ZM143.883 68.6908L53.6369 88.6489C51.5697 89.1066 49.3862 88.8028 47.5666 87.8045C45.7469 86.8062 44.4401 85.1951 43.9336 83.3255L40.3353 70.0168C40.1668 69.3934 40.279 68.7349 40.6473 68.1862C41.0156 67.6376 41.6097 67.2438 42.299 67.0913C42.9883 66.9389 43.7164 67.0404 44.3229 67.3735C44.9295 67.7066 45.3649 68.244 45.5335 68.8674L49.1317 82.1761C49.2151 82.4848 49.365 82.7757 49.5727 83.032C49.7804 83.2884 50.0418 83.5052 50.3422 83.6701C50.6426 83.835 50.9759 83.9448 51.3232 83.9932C51.6704 84.0416 52.0249 84.0277 52.3662 83.9522L142.612 63.9965C142.953 63.921 143.275 63.7855 143.558 63.5977C143.842 63.4098 144.082 63.1733 144.264 62.9016C144.446 62.63 144.568 62.3285 144.621 62.0144C144.675 61.7003 144.659 61.3797 144.576 61.071L132.874 17.7792L97.9265 49.2505C96.2008 50.8086 94.0362 51.9092 91.6676 52.4331C89.299 52.9569 86.8171 52.8839 84.4912 52.222L37.4326 38.877L42.6736 58.2713L53.4336 55.8927C53.7784 55.8073 54.1387 55.7853 54.493 55.8279C54.8474 55.8705 55.1888 55.977 55.4969 56.141C55.805 56.3049 56.0737 56.5231 56.287 56.7825C56.5004 57.042 56.6541 57.3375 56.739 57.6516C56.8239 57.9657 56.8384 58.292 56.7816 58.6113C56.7247 58.9305 56.5977 59.2362 56.4081 59.5103C56.2184 59.7844 55.9699 60.0213 55.6773 60.2071C55.3847 60.3929 55.0539 60.5237 54.7044 60.5919L41.3439 63.5585L3.30384 71.9671C3.09563 72.0143 2.88175 72.0379 2.66712 72.0373C2.01408 72.0355 1.38432 71.8177 0.896531 71.425C0.408744 71.0323 0.0966187 70.4917 0.0189802 69.9053C-0.0586583 69.3188 0.103552 68.7269 0.475041 68.2411C0.846529 67.7553 1.40164 67.4092 2.03575 67.268L37.4701 59.4304L29.5218 30.0256C29.0166 28.1562 29.3528 26.1818 30.4565 24.5365C31.5602 22.8913 33.341 21.7097 35.4074 21.2515L125.653 1.2934C127.721 0.835781 129.904 1.13952 131.724 2.13782C133.543 3.13612 134.85 4.74724 135.357 6.61686L149.774 59.9289C150.275 61.7972 149.936 63.769 148.832 65.4117C147.727 67.0543 145.947 68.2336 143.883 68.6908ZM131.392 12.2888L130.169 7.76866C130.086 7.45994 129.936 7.16909 129.728 6.91274C129.521 6.6564 129.259 6.43956 128.959 6.27463C128.658 6.1097 128.325 5.9999 127.978 5.95151C127.631 5.90311 127.276 5.91706 126.935 5.99257L36.6889 25.9507C36.3476 26.0261 36.026 26.1616 35.7426 26.3495C35.4592 26.5374 35.2195 26.7739 35.0371 27.0455C34.8548 27.3172 34.7334 27.6187 34.6798 27.9328C34.6263 28.2469 34.6418 28.5675 34.7252 28.8762L35.9479 33.3939L86.091 47.6026C87.4868 48.0008 88.9767 48.0451 90.3984 47.7306C91.8201 47.4162 93.1192 46.7551 94.1544 45.8193L131.392 12.2888Z" fill="#343A40"/>
</svg>
