<svg width="267" height="138" viewBox="0 0 267 138" fill="none" xmlns="http://www.w3.org/2000/svg">
<path d="M244.18 22.9772C252.388 28.7006 258.601 35.3314 262.333 42.6806L261.441 43.1329C263.464 47.1162 264.735 51.3064 265.179 55.6756C265.624 60.0447 265.223 64.4041 264.043 68.7114L265.008 68.976C262.832 76.923 258.081 84.6631 251.193 91.914L250.468 91.2251C244.863 97.1256 237.809 102.715 229.538 107.831L230.064 108.681C222.866 113.133 214.767 117.219 205.927 120.837L205.548 119.911C197.606 123.162 189.058 126.034 180.019 128.453L180.278 129.419C171.843 131.676 162.987 133.539 153.801 134.948L153.649 133.959C149.265 134.632 144.805 135.2 140.28 135.658C135.755 136.116 131.272 136.452 126.841 136.672L126.891 137.671C117.609 138.131 108.558 138.08 99.8401 137.558L99.8993 136.56C90.558 136.001 81.6057 134.899 73.1709 133.306L72.9858 134.289C63.5969 132.515 54.8406 130.135 46.8923 127.216L47.2367 126.277C38.1038 122.923 30.0677 118.86 23.3888 114.203L22.8171 115.023C14.6097 109.299 8.39686 102.669 4.66467 95.3195L5.55631 94.8671C3.53346 90.8839 2.26269 86.6936 1.81821 82.3245C1.37374 77.9553 1.77474 73.5959 2.95418 69.2886L1.98962 69.0241C4.1657 61.077 8.91656 53.3369 15.804 46.0861L16.5293 46.7749C22.1341 40.8744 29.1883 35.2848 37.4596 30.1695L36.9332 29.319C44.1316 24.8672 52.2301 20.7813 61.0705 17.1633L61.4498 18.0888C69.3918 14.8384 77.9398 11.966 86.9782 9.54721L86.7192 8.58125C95.1541 6.32396 104.011 4.46095 113.196 3.05243L113.348 4.04082C117.733 3.36849 122.193 2.80008 126.718 2.34221C131.243 1.88434 135.726 1.5478 140.156 1.32817L140.106 0.329451C149.388 -0.130675 158.44 -0.0797627 167.157 0.441904L167.098 1.44006C176.439 1.99905 185.392 3.10067 193.827 4.69387L194.012 3.7113C203.401 5.48473 212.157 7.8651 220.105 10.7843L219.761 11.7229C228.894 15.0771 236.93 19.1398 243.609 23.7973L244.18 22.9772Z" stroke="#5ACB5A" stroke-width="2" stroke-dasharray="30 30"/>
</svg>
