<svg width="76" height="28" viewBox="0 0 76 28" fill="none" xmlns="http://www.w3.org/2000/svg">
<rect width="76" height="28" rx="14" fill="#5DD35D"/>
<path d="M14 22C9.5816 22 6 18.4184 6 14C6 9.5816 9.5816 6 14 6C18.4184 6 22 9.5816 22 14C22 18.4184 18.4184 22 14 22ZM14 11.6H10.8V13.2H18L14 9.2V11.6ZM10 14.8L14 18.8V16.4H17.2V14.8H10Z" fill="white"/>
<path d="M31.21 17.5H26.9V10.41H31.21V11.32H27.88V13.5H30.9V14.42H27.88V16.59H31.21V17.5ZM31.9105 17.5L33.7005 15.05L31.9705 12.69H33.1105L34.2905 14.38L35.4505 12.69H36.5605L34.8505 15.05C34.9439 15.1767 35.2372 15.5833 35.7305 16.27C36.2239 16.9567 36.5205 17.3667 36.6205 17.5H35.4905L34.2505 15.73L33.0305 17.5H31.9105ZM39.445 13.41C39.0383 13.41 38.6917 13.5567 38.405 13.85C38.125 14.1433 37.985 14.5567 37.985 15.09C37.985 15.6167 38.125 16.03 38.405 16.33C38.6917 16.63 39.0417 16.78 39.455 16.78C39.855 16.78 40.1583 16.68 40.365 16.48C40.5783 16.28 40.7217 16.05 40.795 15.79L41.625 16.15C41.4917 16.55 41.2383 16.9 40.865 17.2C40.4983 17.5 40.0283 17.65 39.455 17.65C38.755 17.65 38.175 17.4067 37.715 16.92C37.255 16.4333 37.025 15.8233 37.025 15.09C37.025 14.3433 37.255 13.7333 37.715 13.26C38.175 12.78 38.7517 12.54 39.445 12.54C40.0317 12.54 40.505 12.69 40.865 12.99C41.2317 13.29 41.4717 13.65 41.585 14.07L40.735 14.43C40.6617 14.15 40.5217 13.91 40.315 13.71C40.1083 13.51 39.8183 13.41 39.445 13.41ZM43.6677 14.67V17.5H42.7277V10.26H43.6677V13.25C43.9877 12.7833 44.4744 12.55 45.1277 12.55C45.6811 12.55 46.1044 12.7267 46.3977 13.08C46.6977 13.4333 46.8477 13.89 46.8477 14.45V17.5H45.9077V14.61C45.9077 13.8033 45.5344 13.4 44.7877 13.4C44.4411 13.4 44.1711 13.52 43.9777 13.76C43.7844 13.9933 43.6811 14.2967 43.6677 14.67ZM48.043 16.21C48.043 15.7967 48.1763 15.4667 48.443 15.22C48.7096 14.9667 49.063 14.81 49.503 14.75L50.803 14.56C51.0496 14.5267 51.173 14.4067 51.173 14.2C51.173 13.9467 51.0863 13.74 50.913 13.58C50.7396 13.42 50.4796 13.34 50.133 13.34C49.813 13.34 49.5596 13.43 49.373 13.61C49.1863 13.7833 49.0763 14.0167 49.043 14.31L48.143 14.1C48.1896 13.64 48.3996 13.2667 48.773 12.98C49.1463 12.6867 49.593 12.54 50.113 12.54C50.793 12.54 51.2963 12.7067 51.623 13.04C51.9496 13.3667 52.113 13.7867 52.113 14.3V16.71C52.113 16.9967 52.133 17.26 52.173 17.5H51.253C51.2196 17.3 51.203 17.0833 51.203 16.85C51.0696 17.0633 50.873 17.25 50.613 17.41C50.3596 17.57 50.0396 17.65 49.653 17.65C49.1796 17.65 48.793 17.51 48.493 17.23C48.193 16.9433 48.043 16.6033 48.043 16.21ZM49.783 16.86C50.203 16.86 50.5396 16.7467 50.793 16.52C51.0463 16.2933 51.173 15.9333 51.173 15.44V15.22L49.703 15.44C49.4896 15.4733 49.3196 15.55 49.193 15.67C49.0663 15.79 49.003 15.9533 49.003 16.16C49.003 16.3467 49.073 16.51 49.213 16.65C49.3596 16.79 49.5496 16.86 49.783 16.86ZM54.5173 14.72V17.5H53.5773V12.69H54.4973V13.38C54.8173 12.8267 55.3107 12.55 55.9773 12.55C56.5307 12.55 56.954 12.7267 57.2473 13.08C57.5473 13.4333 57.6973 13.89 57.6973 14.45V17.5H56.7573V14.61C56.7573 13.8033 56.384 13.4 55.6373 13.4C55.284 13.4 55.0073 13.5267 54.8073 13.78C54.614 14.0267 54.5173 14.34 54.5173 14.72ZM58.8426 17.76L59.7526 17.55C59.7859 17.89 59.9226 18.17 60.1626 18.39C60.4026 18.6167 60.7026 18.73 61.0626 18.73C62.0426 18.73 62.5326 18.21 62.5326 17.17V16.48C62.4126 16.7133 62.2226 16.9033 61.9626 17.05C61.7092 17.1967 61.4092 17.27 61.0626 17.27C60.4226 17.27 59.8926 17.0533 59.4726 16.62C59.0592 16.18 58.8526 15.62 58.8526 14.94C58.8526 14.28 59.0592 13.7267 59.4726 13.28C59.8859 12.8267 60.4159 12.6 61.0626 12.6C61.7959 12.6 62.2892 12.8533 62.5426 13.36V12.69H63.4726V17.14C63.4726 17.46 63.4292 17.7567 63.3426 18.03C63.2626 18.31 63.1326 18.5667 62.9526 18.8C62.7726 19.0333 62.5192 19.2167 62.1926 19.35C61.8726 19.4833 61.4959 19.55 61.0626 19.55C60.4692 19.55 59.9659 19.38 59.5526 19.04C59.1392 18.7067 58.9026 18.28 58.8426 17.76ZM61.2026 16.48C61.6092 16.48 61.9392 16.34 62.1926 16.06C62.4459 15.7733 62.5726 15.4 62.5726 14.94C62.5726 14.48 62.4459 14.11 62.1926 13.83C61.9392 13.5433 61.6092 13.4 61.2026 13.4C60.7892 13.4 60.4526 13.54 60.1926 13.82C59.9392 14.1 59.8126 14.4733 59.8126 14.94C59.8126 15.4133 59.9359 15.79 60.1826 16.07C60.4359 16.3433 60.7759 16.48 61.2026 16.48ZM65.5838 14.6H68.2138C68.2005 14.24 68.0805 13.9467 67.8538 13.72C67.6272 13.4867 67.3072 13.37 66.8938 13.37C66.5205 13.37 66.2138 13.4933 65.9738 13.74C65.7338 13.98 65.6038 14.2667 65.5838 14.6ZM68.3538 15.85L69.1638 16.13C69.0238 16.5767 68.7638 16.9433 68.3838 17.23C68.0038 17.51 67.5438 17.65 67.0038 17.65C66.3305 17.65 65.7572 17.42 65.2838 16.96C64.8172 16.4933 64.5838 15.8667 64.5838 15.08C64.5838 14.3467 64.8105 13.74 65.2638 13.26C65.7172 12.78 66.2572 12.54 66.8838 12.54C67.6105 12.54 68.1772 12.77 68.5838 13.23C68.9905 13.6833 69.1938 14.2933 69.1938 15.06C69.1938 15.18 69.1872 15.28 69.1738 15.36H65.5538C65.5605 15.7867 65.7005 16.1367 65.9738 16.41C66.2538 16.6833 66.5972 16.82 67.0038 16.82C67.6905 16.82 68.1405 16.4967 68.3538 15.85Z" fill="white"/>
</svg>
