<svg width="375" height="345" viewBox="0 0 375 345" fill="none" xmlns="http://www.w3.org/2000/svg">
<path d="M173.152 304.404H172.216V303.156C171.44 303.076 170.828 302.808 170.38 302.352C169.932 301.888 169.672 301.364 169.6 300.78L170.74 300.42C170.78 300.836 170.924 301.2 171.172 301.512C171.42 301.824 171.768 302.02 172.216 302.1V299.592L171.916 299.532C171.292 299.404 170.804 299.152 170.452 298.776C170.1 298.4 169.924 297.924 169.924 297.348C169.924 296.772 170.136 296.268 170.56 295.836C170.992 295.404 171.544 295.148 172.216 295.068V293.808H173.152V295.08C173.816 295.168 174.324 295.4 174.676 295.776C175.036 296.144 175.276 296.564 175.396 297.036L174.316 297.432C174.276 297.168 174.156 296.912 173.956 296.664C173.756 296.416 173.488 296.244 173.152 296.148V298.608L173.332 298.644C173.988 298.772 174.508 299.04 174.892 299.448C175.276 299.856 175.468 300.332 175.468 300.876C175.468 301.444 175.264 301.944 174.856 302.376C174.448 302.808 173.88 303.068 173.152 303.156V304.404ZM174.292 300.936C174.292 300.672 174.196 300.436 174.004 300.228C173.812 300.02 173.528 299.872 173.152 299.784V302.1C173.528 302.028 173.812 301.888 174.004 301.68C174.196 301.472 174.292 301.224 174.292 300.936ZM171.112 297.3C171.112 297.884 171.48 298.248 172.216 298.392V296.112C171.872 296.176 171.6 296.316 171.4 296.532C171.208 296.748 171.112 297.004 171.112 297.3ZM176.704 302.724L177.088 301.752C177.496 302 177.968 302.124 178.504 302.124C179.392 302.124 180.056 301.872 180.496 301.368C180.944 300.856 181.18 300.188 181.204 299.364C181.052 299.644 180.8 299.88 180.448 300.072C180.104 300.264 179.684 300.36 179.188 300.36C178.468 300.36 177.84 300.128 177.304 299.664C176.768 299.192 176.5 298.548 176.5 297.732C176.5 296.948 176.78 296.304 177.34 295.8C177.908 295.296 178.584 295.044 179.368 295.044C180.2 295.044 180.912 295.348 181.504 295.956C182.096 296.564 182.392 297.452 182.392 298.62C182.392 300.076 182.064 301.2 181.408 301.992C180.76 302.784 179.792 303.18 178.504 303.18C178.2 303.18 177.872 303.136 177.52 303.048C177.168 302.96 176.896 302.852 176.704 302.724ZM181.048 297.708C181.048 297.228 180.88 296.836 180.544 296.532C180.208 296.228 179.816 296.076 179.368 296.076C178.912 296.076 178.516 296.228 178.18 296.532C177.852 296.828 177.688 297.22 177.688 297.708C177.688 298.212 177.852 298.612 178.18 298.908C178.508 299.204 178.904 299.352 179.368 299.352C179.824 299.352 180.216 299.204 180.544 298.908C180.88 298.604 181.048 298.204 181.048 297.708ZM183.412 301.248V299.892L186.748 295.224H188.368V300.156H189.7V301.248H188.368V303H187.228V301.248H183.412ZM187.228 300.156V296.352L184.492 300.156H187.228ZM190.723 302.232C190.723 302.016 190.807 301.828 190.975 301.668C191.143 301.508 191.351 301.428 191.599 301.428C191.871 301.428 192.099 301.528 192.283 301.728C192.475 301.928 192.571 302.208 192.571 302.568C192.571 303.288 192.387 303.844 192.019 304.236C191.651 304.628 191.243 304.852 190.795 304.908V304.284C191.083 304.22 191.319 304.06 191.503 303.804C191.687 303.556 191.783 303.284 191.791 302.988C191.735 303.028 191.647 303.048 191.527 303.048C191.295 303.048 191.103 302.976 190.951 302.832C190.799 302.68 190.723 302.48 190.723 302.232ZM195.102 298.02L193.926 297.876C193.918 297.804 193.914 297.7 193.914 297.564C193.914 296.868 194.158 296.276 194.646 295.788C195.134 295.292 195.786 295.044 196.602 295.044C197.41 295.044 198.05 295.276 198.522 295.74C198.994 296.196 199.23 296.76 199.23 297.432C199.23 298.416 198.742 299.216 197.766 299.832L196.23 300.816C195.678 301.168 195.362 301.532 195.282 301.908H199.278V303H193.83C193.846 302.344 193.994 301.768 194.274 301.272C194.562 300.776 195.03 300.32 195.678 299.904L196.974 299.064C197.686 298.608 198.042 298.068 198.042 297.444C198.042 297.06 197.914 296.736 197.658 296.472C197.402 296.208 197.042 296.076 196.578 296.076C196.09 296.076 195.718 296.224 195.462 296.52C195.206 296.816 195.078 297.2 195.078 297.672C195.078 297.744 195.086 297.86 195.102 298.02ZM205.498 295.224V296.352C205.298 296.512 205.102 296.684 204.91 296.868C204.718 297.052 204.462 297.348 204.142 297.756C203.83 298.164 203.554 298.596 203.314 299.052C203.074 299.508 202.846 300.088 202.63 300.792C202.422 301.488 202.282 302.224 202.21 303H200.998C201.046 302.384 201.142 301.788 201.286 301.212C201.43 300.628 201.598 300.12 201.79 299.688C201.982 299.256 202.186 298.852 202.402 298.476C202.626 298.092 202.842 297.772 203.05 297.516C203.266 297.252 203.458 297.028 203.626 296.844C203.802 296.66 203.942 296.524 204.046 296.436L204.202 296.304H199.822V295.224H205.498ZM206.364 302.724L206.748 301.752C207.156 302 207.628 302.124 208.164 302.124C209.052 302.124 209.716 301.872 210.156 301.368C210.604 300.856 210.84 300.188 210.864 299.364C210.712 299.644 210.46 299.88 210.108 300.072C209.764 300.264 209.344 300.36 208.848 300.36C208.128 300.36 207.5 300.128 206.964 299.664C206.428 299.192 206.16 298.548 206.16 297.732C206.16 296.948 206.44 296.304 207 295.8C207.568 295.296 208.244 295.044 209.028 295.044C209.86 295.044 210.572 295.348 211.164 295.956C211.756 296.564 212.052 297.452 212.052 298.62C212.052 300.076 211.724 301.2 211.068 301.992C210.42 302.784 209.452 303.18 208.164 303.18C207.86 303.18 207.532 303.136 207.18 303.048C206.828 302.96 206.556 302.852 206.364 302.724ZM210.708 297.708C210.708 297.228 210.54 296.836 210.204 296.532C209.868 296.228 209.476 296.076 209.028 296.076C208.572 296.076 208.176 296.228 207.84 296.532C207.512 296.828 207.348 297.22 207.348 297.708C207.348 298.212 207.512 298.612 207.84 298.908C208.168 299.204 208.564 299.352 209.028 299.352C209.484 299.352 209.876 299.204 210.204 298.908C210.54 298.604 210.708 298.204 210.708 297.708ZM213.252 302.82C213.092 302.66 213.012 302.464 213.012 302.232C213.012 302 213.092 301.804 213.252 301.644C213.412 301.476 213.608 301.392 213.84 301.392C214.072 301.392 214.268 301.476 214.428 301.644C214.596 301.804 214.68 302 214.68 302.232C214.68 302.464 214.596 302.66 214.428 302.82C214.268 302.98 214.072 303.06 213.84 303.06C213.608 303.06 213.412 302.98 213.252 302.82ZM218.016 303H216.864V297.516H214.98V296.688C215.508 296.68 215.952 296.544 216.312 296.28C216.672 296.008 216.896 295.656 216.984 295.224H218.016V303ZM222.27 298.536C222.686 298.528 223.03 298.408 223.302 298.176C223.574 297.944 223.71 297.64 223.71 297.264C223.71 296.912 223.578 296.616 223.314 296.376C223.05 296.136 222.702 296.016 222.27 296.016C221.838 296.016 221.49 296.136 221.226 296.376C220.962 296.616 220.83 296.912 220.83 297.264C220.83 297.64 220.966 297.944 221.238 298.176C221.51 298.408 221.854 298.528 222.27 298.536ZM221.07 301.788C221.366 302.036 221.766 302.16 222.27 302.16C222.774 302.16 223.17 302.036 223.458 301.788C223.754 301.54 223.902 301.228 223.902 300.852C223.902 300.468 223.754 300.152 223.458 299.904C223.17 299.648 222.774 299.52 222.27 299.52C221.766 299.52 221.366 299.648 221.07 299.904C220.782 300.152 220.638 300.468 220.638 300.852C220.638 301.228 220.782 301.54 221.07 301.788ZM224.334 302.556C223.83 302.972 223.142 303.18 222.27 303.18C221.398 303.18 220.71 302.972 220.206 302.556C219.702 302.132 219.45 301.596 219.45 300.948C219.45 300.492 219.586 300.096 219.858 299.76C220.138 299.416 220.494 299.172 220.926 299.028C220.558 298.892 220.254 298.66 220.014 298.332C219.774 297.996 219.654 297.62 219.654 297.204C219.654 296.572 219.902 296.056 220.398 295.656C220.894 295.248 221.518 295.044 222.27 295.044C223.022 295.044 223.646 295.248 224.142 295.656C224.638 296.056 224.886 296.572 224.886 297.204C224.886 297.612 224.766 297.984 224.526 298.32C224.286 298.656 223.982 298.892 223.614 299.028C224.046 299.164 224.398 299.404 224.67 299.748C224.95 300.092 225.09 300.492 225.09 300.948C225.09 301.596 224.838 302.132 224.334 302.556Z" fill="#6C757D"/>
<path d="M15.632 338.728C15.328 339.048 15.176 339.608 15.176 340.408C15.176 341.208 15.328 341.768 15.632 342.088C15.8453 342.312 16.12 342.424 16.456 342.424C16.792 342.424 17.0667 342.312 17.28 342.088C17.584 341.768 17.736 341.208 17.736 340.408C17.736 339.608 17.584 339.048 17.28 338.728C17.0667 338.504 16.792 338.392 16.456 338.392C16.12 338.392 15.8453 338.504 15.632 338.728ZM14.864 342.288C14.5547 341.829 14.4 341.203 14.4 340.408C14.4 339.613 14.5547 338.987 14.864 338.528C15.232 337.973 15.7627 337.696 16.456 337.696C17.1493 337.696 17.68 337.973 18.048 338.528C18.3573 338.987 18.512 339.613 18.512 340.408C18.512 341.203 18.3573 341.829 18.048 342.288C17.68 342.843 17.1493 343.12 16.456 343.12C15.7627 343.12 15.232 342.843 14.864 342.288ZM19.1941 341.832V340.928L21.4181 337.816H22.4981V341.104H23.3861V341.832H22.4981V343H21.7381V341.832H19.1941ZM21.7381 341.104V338.568L19.9141 341.104H21.7381ZM24.2758 342.88C24.1691 342.773 24.1158 342.643 24.1158 342.488C24.1158 342.333 24.1691 342.203 24.2758 342.096C24.3825 341.984 24.5131 341.928 24.6678 341.928C24.8225 341.928 24.9531 341.984 25.0598 342.096C25.1718 342.203 25.2278 342.333 25.2278 342.488C25.2278 342.643 25.1718 342.773 25.0598 342.88C24.9531 342.987 24.8225 343.04 24.6678 343.04C24.5131 343.04 24.3825 342.987 24.2758 342.88ZM24.2678 340.064C24.1611 339.957 24.1078 339.827 24.1078 339.672C24.1078 339.517 24.1611 339.387 24.2678 339.28C24.3745 339.168 24.5051 339.112 24.6598 339.112C24.8145 339.112 24.9451 339.168 25.0518 339.28C25.1638 339.387 25.2198 339.517 25.2198 339.672C25.2198 339.827 25.1638 339.957 25.0518 340.064C24.9451 340.171 24.8145 340.224 24.6598 340.224C24.5051 340.224 24.3745 340.171 24.2678 340.064ZM28.0521 343H27.2841V339.344H26.0281V338.792C26.3801 338.787 26.6761 338.696 26.9161 338.52C27.1561 338.339 27.3055 338.104 27.3641 337.816H28.0521V343ZM32.8875 337.984L32.6475 338.624C32.3915 338.475 32.0822 338.4 31.7195 338.4C31.1915 338.4 30.7622 338.573 30.4315 338.92C30.1062 339.267 29.9275 339.712 29.8955 340.256C30.0128 340.064 30.1888 339.904 30.4235 339.776C30.6635 339.648 30.9435 339.584 31.2635 339.584C31.7915 339.584 32.2182 339.741 32.5435 340.056C32.8742 340.371 33.0395 340.803 33.0395 341.352C33.0395 341.891 32.8528 342.32 32.4795 342.64C32.1062 342.96 31.6528 343.12 31.1195 343.12C30.5648 343.12 30.0875 342.92 29.6875 342.52C29.2928 342.115 29.0955 341.515 29.0955 340.72C29.0955 339.781 29.3462 339.043 29.8475 338.504C30.3488 337.965 30.9888 337.696 31.7675 337.696C32.2422 337.696 32.6155 337.792 32.8875 337.984ZM30.0075 341.352C30.0075 341.677 30.1195 341.941 30.3435 342.144C30.5675 342.341 30.8288 342.44 31.1275 342.44C31.4422 342.44 31.7062 342.341 31.9195 342.144C32.1382 341.947 32.2475 341.683 32.2475 341.352C32.2475 341.016 32.1382 340.749 31.9195 340.552C31.7062 340.355 31.4422 340.256 31.1275 340.256C30.8128 340.256 30.5462 340.355 30.3275 340.552C30.1142 340.749 30.0075 341.016 30.0075 341.352Z" fill="#6C757D"/>
<path d="M95.632 338.728C95.328 339.048 95.176 339.608 95.176 340.408C95.176 341.208 95.328 341.768 95.632 342.088C95.8453 342.312 96.12 342.424 96.456 342.424C96.792 342.424 97.0667 342.312 97.28 342.088C97.584 341.768 97.736 341.208 97.736 340.408C97.736 339.608 97.584 339.048 97.28 338.728C97.0667 338.504 96.792 338.392 96.456 338.392C96.12 338.392 95.8453 338.504 95.632 338.728ZM94.864 342.288C94.5547 341.829 94.4 341.203 94.4 340.408C94.4 339.613 94.5547 338.987 94.864 338.528C95.232 337.973 95.7627 337.696 96.456 337.696C97.1493 337.696 97.68 337.973 98.048 338.528C98.3573 338.987 98.512 339.613 98.512 340.408C98.512 341.203 98.3573 341.829 98.048 342.288C97.68 342.843 97.1493 343.12 96.456 343.12C95.7627 343.12 95.232 342.843 94.864 342.288ZM103.075 337.984L102.835 338.624C102.579 338.475 102.27 338.4 101.907 338.4C101.379 338.4 100.95 338.573 100.619 338.92C100.294 339.267 100.115 339.712 100.083 340.256C100.2 340.064 100.376 339.904 100.611 339.776C100.851 339.648 101.131 339.584 101.451 339.584C101.979 339.584 102.406 339.741 102.731 340.056C103.062 340.371 103.227 340.803 103.227 341.352C103.227 341.891 103.04 342.32 102.667 342.64C102.294 342.96 101.84 343.12 101.307 343.12C100.752 343.12 100.275 342.92 99.875 342.52C99.4803 342.115 99.283 341.515 99.283 340.72C99.283 339.781 99.5337 339.043 100.035 338.504C100.536 337.965 101.176 337.696 101.955 337.696C102.43 337.696 102.803 337.792 103.075 337.984ZM100.195 341.352C100.195 341.677 100.307 341.941 100.531 342.144C100.755 342.341 101.016 342.44 101.315 342.44C101.63 342.44 101.894 342.341 102.107 342.144C102.326 341.947 102.435 341.683 102.435 341.352C102.435 341.016 102.326 340.749 102.107 340.552C101.894 340.355 101.63 340.256 101.315 340.256C101 340.256 100.734 340.355 100.515 340.552C100.302 340.749 100.195 341.016 100.195 341.352ZM104.284 342.88C104.177 342.773 104.124 342.643 104.124 342.488C104.124 342.333 104.177 342.203 104.284 342.096C104.39 341.984 104.521 341.928 104.676 341.928C104.83 341.928 104.961 341.984 105.068 342.096C105.18 342.203 105.236 342.333 105.236 342.488C105.236 342.643 105.18 342.773 105.068 342.88C104.961 342.987 104.83 343.04 104.676 343.04C104.521 343.04 104.39 342.987 104.284 342.88ZM104.276 340.064C104.169 339.957 104.116 339.827 104.116 339.672C104.116 339.517 104.169 339.387 104.276 339.28C104.382 339.168 104.513 339.112 104.668 339.112C104.822 339.112 104.953 339.168 105.06 339.28C105.172 339.387 105.228 339.517 105.228 339.672C105.228 339.827 105.172 339.957 105.06 340.064C104.953 340.171 104.822 340.224 104.668 340.224C104.513 340.224 104.382 340.171 104.276 340.064ZM106.116 341.592L106.868 341.368C106.889 341.688 107.007 341.947 107.22 342.144C107.439 342.341 107.711 342.44 108.036 342.44C108.351 342.44 108.615 342.344 108.828 342.152C109.041 341.96 109.148 341.707 109.148 341.392C109.148 341.051 109.041 340.787 108.828 340.6C108.615 340.413 108.348 340.32 108.028 340.32C107.639 340.32 107.324 340.445 107.084 340.696C107.009 340.669 106.887 340.621 106.716 340.552C106.545 340.483 106.412 340.429 106.316 340.392L106.988 337.816H109.724V338.536H107.508L107.124 340.024C107.353 339.768 107.705 339.64 108.18 339.64C108.697 339.64 109.119 339.795 109.444 340.104C109.775 340.413 109.94 340.832 109.94 341.36C109.94 341.861 109.764 342.283 109.412 342.624C109.06 342.96 108.601 343.128 108.036 343.128C107.503 343.128 107.057 342.979 106.7 342.68C106.348 342.381 106.153 342.019 106.116 341.592ZM110.499 341.832V340.928L112.723 337.816H113.803V341.104H114.691V341.832H113.803V343H113.043V341.832H110.499ZM113.043 341.104V338.568L111.219 341.104H113.043Z" fill="#6C757D"/>
<path d="M174.632 338.728C174.328 339.048 174.176 339.608 174.176 340.408C174.176 341.208 174.328 341.768 174.632 342.088C174.845 342.312 175.12 342.424 175.456 342.424C175.792 342.424 176.067 342.312 176.28 342.088C176.584 341.768 176.736 341.208 176.736 340.408C176.736 339.608 176.584 339.048 176.28 338.728C176.067 338.504 175.792 338.392 175.456 338.392C175.12 338.392 174.845 338.504 174.632 338.728ZM173.864 342.288C173.555 341.829 173.4 341.203 173.4 340.408C173.4 339.613 173.555 338.987 173.864 338.528C174.232 337.973 174.763 337.696 175.456 337.696C176.149 337.696 176.68 337.973 177.048 338.528C177.357 338.987 177.512 339.613 177.512 340.408C177.512 341.203 177.357 341.829 177.048 342.288C176.68 342.843 176.149 343.12 175.456 343.12C174.763 343.12 174.232 342.843 173.864 342.288ZM178.37 342.816L178.626 342.168C178.898 342.333 179.213 342.416 179.57 342.416C180.162 342.416 180.605 342.248 180.898 341.912C181.197 341.571 181.354 341.125 181.37 340.576C181.269 340.763 181.101 340.92 180.866 341.048C180.637 341.176 180.357 341.24 180.026 341.24C179.546 341.24 179.127 341.085 178.77 340.776C178.413 340.461 178.234 340.032 178.234 339.488C178.234 338.965 178.421 338.536 178.794 338.2C179.173 337.864 179.623 337.696 180.146 337.696C180.701 337.696 181.175 337.899 181.57 338.304C181.965 338.709 182.162 339.301 182.162 340.08C182.162 341.051 181.943 341.8 181.506 342.328C181.074 342.856 180.429 343.12 179.57 343.12C179.367 343.12 179.149 343.091 178.914 343.032C178.679 342.973 178.498 342.901 178.37 342.816ZM181.266 339.472C181.266 339.152 181.154 338.891 180.93 338.688C180.706 338.485 180.445 338.384 180.146 338.384C179.842 338.384 179.578 338.485 179.354 338.688C179.135 338.885 179.026 339.147 179.026 339.472C179.026 339.808 179.135 340.075 179.354 340.272C179.573 340.469 179.837 340.568 180.146 340.568C180.45 340.568 180.711 340.469 180.93 340.272C181.154 340.069 181.266 339.803 181.266 339.472ZM183.331 342.88C183.224 342.773 183.171 342.643 183.171 342.488C183.171 342.333 183.224 342.203 183.331 342.096C183.437 341.984 183.568 341.928 183.723 341.928C183.877 341.928 184.008 341.984 184.115 342.096C184.227 342.203 184.283 342.333 184.283 342.488C184.283 342.643 184.227 342.773 184.115 342.88C184.008 342.987 183.877 343.04 183.723 343.04C183.568 343.04 183.437 342.987 183.331 342.88ZM183.323 340.064C183.216 339.957 183.163 339.827 183.163 339.672C183.163 339.517 183.216 339.387 183.323 339.28C183.429 339.168 183.56 339.112 183.715 339.112C183.869 339.112 184 339.168 184.107 339.28C184.219 339.387 184.275 339.517 184.275 339.672C184.275 339.827 184.219 339.957 184.107 340.064C184 340.171 183.869 340.224 183.715 340.224C183.56 340.224 183.429 340.171 183.323 340.064ZM187.107 343H186.339V339.344H185.083V338.792C185.435 338.787 185.731 338.696 185.971 338.52C186.211 338.339 186.36 338.104 186.419 337.816H187.107V343ZM189.943 340.024C190.22 340.019 190.45 339.939 190.631 339.784C190.812 339.629 190.903 339.427 190.903 339.176C190.903 338.941 190.815 338.744 190.639 338.584C190.463 338.424 190.231 338.344 189.943 338.344C189.655 338.344 189.423 338.424 189.247 338.584C189.071 338.744 188.983 338.941 188.983 339.176C188.983 339.427 189.074 339.629 189.255 339.784C189.436 339.939 189.666 340.019 189.943 340.024ZM189.143 342.192C189.34 342.357 189.607 342.44 189.943 342.44C190.279 342.44 190.543 342.357 190.735 342.192C190.932 342.027 191.031 341.819 191.031 341.568C191.031 341.312 190.932 341.101 190.735 340.936C190.543 340.765 190.279 340.68 189.943 340.68C189.607 340.68 189.34 340.765 189.143 340.936C188.951 341.101 188.855 341.312 188.855 341.568C188.855 341.819 188.951 342.027 189.143 342.192ZM191.319 342.704C190.983 342.981 190.524 343.12 189.943 343.12C189.362 343.12 188.903 342.981 188.567 342.704C188.231 342.421 188.063 342.064 188.063 341.632C188.063 341.328 188.154 341.064 188.335 340.84C188.522 340.611 188.759 340.448 189.047 340.352C188.802 340.261 188.599 340.107 188.439 339.888C188.279 339.664 188.199 339.413 188.199 339.136C188.199 338.715 188.364 338.371 188.695 338.104C189.026 337.832 189.442 337.696 189.943 337.696C190.444 337.696 190.86 337.832 191.191 338.104C191.522 338.371 191.687 338.715 191.687 339.136C191.687 339.408 191.607 339.656 191.447 339.88C191.287 340.104 191.084 340.261 190.839 340.352C191.127 340.443 191.362 340.603 191.543 340.832C191.73 341.061 191.823 341.328 191.823 341.632C191.823 342.064 191.655 342.421 191.319 342.704Z" fill="#6C757D"/>
<path d="M255.224 343H254.456V339.344H253.2V338.792C253.552 338.787 253.848 338.696 254.088 338.52C254.328 338.339 254.477 338.104 254.536 337.816H255.224V343ZM256.1 341.832V340.928L258.324 337.816H259.404V341.104H260.292V341.832H259.404V343H258.644V341.832H256.1ZM258.644 341.104V338.568L256.82 341.104H258.644ZM261.182 342.88C261.075 342.773 261.022 342.643 261.022 342.488C261.022 342.333 261.075 342.203 261.182 342.096C261.289 341.984 261.419 341.928 261.574 341.928C261.729 341.928 261.859 341.984 261.966 342.096C262.078 342.203 262.134 342.333 262.134 342.488C262.134 342.643 262.078 342.773 261.966 342.88C261.859 342.987 261.729 343.04 261.574 343.04C261.419 343.04 261.289 342.987 261.182 342.88ZM261.174 340.064C261.067 339.957 261.014 339.827 261.014 339.672C261.014 339.517 261.067 339.387 261.174 339.28C261.281 339.168 261.411 339.112 261.566 339.112C261.721 339.112 261.851 339.168 261.958 339.28C262.07 339.387 262.126 339.517 262.126 339.672C262.126 339.827 262.07 339.957 261.958 340.064C261.851 340.171 261.721 340.224 261.566 340.224C261.411 340.224 261.281 340.171 261.174 340.064ZM263.014 341.592L263.766 341.368C263.788 341.688 263.905 341.947 264.118 342.144C264.337 342.341 264.609 342.44 264.934 342.44C265.249 342.44 265.513 342.344 265.726 342.152C265.94 341.96 266.046 341.707 266.046 341.392C266.046 341.051 265.94 340.787 265.726 340.6C265.513 340.413 265.246 340.32 264.926 340.32C264.537 340.32 264.222 340.445 263.982 340.696C263.908 340.669 263.785 340.621 263.614 340.552C263.444 340.483 263.31 340.429 263.214 340.392L263.886 337.816H266.622V338.536H264.406L264.022 340.024C264.252 339.768 264.604 339.64 265.078 339.64C265.596 339.64 266.017 339.795 266.342 340.104C266.673 340.413 266.838 340.832 266.838 341.36C266.838 341.861 266.662 342.283 266.31 342.624C265.958 342.96 265.5 343.128 264.934 343.128C264.401 343.128 263.956 342.979 263.598 342.68C263.246 342.381 263.052 342.019 263.014 341.592ZM270.98 337.816V338.568C270.847 338.675 270.716 338.789 270.588 338.912C270.46 339.035 270.29 339.232 270.076 339.504C269.868 339.776 269.684 340.064 269.524 340.368C269.364 340.672 269.212 341.059 269.068 341.528C268.93 341.992 268.836 342.483 268.788 343H267.98C268.012 342.589 268.076 342.192 268.172 341.808C268.268 341.419 268.38 341.08 268.508 340.792C268.636 340.504 268.772 340.235 268.916 339.984C269.066 339.728 269.21 339.515 269.348 339.344C269.492 339.168 269.62 339.019 269.732 338.896C269.85 338.773 269.943 338.683 270.012 338.624L270.116 338.536H267.196V337.816H270.98Z" fill="#6C757D"/>
<path d="M336.224 343H335.456V339.344H334.2V338.792C334.552 338.787 334.848 338.696 335.088 338.52C335.328 338.339 335.477 338.104 335.536 337.816H336.224V343ZM341.059 337.984L340.819 338.624C340.563 338.475 340.254 338.4 339.891 338.4C339.363 338.4 338.934 338.573 338.603 338.92C338.278 339.267 338.099 339.712 338.067 340.256C338.185 340.064 338.361 339.904 338.595 339.776C338.835 339.648 339.115 339.584 339.435 339.584C339.963 339.584 340.39 339.741 340.715 340.056C341.046 340.371 341.211 340.803 341.211 341.352C341.211 341.891 341.025 342.32 340.651 342.64C340.278 342.96 339.825 343.12 339.291 343.12C338.737 343.12 338.259 342.92 337.859 342.52C337.465 342.115 337.267 341.515 337.267 340.72C337.267 339.781 337.518 339.043 338.019 338.504C338.521 337.965 339.161 337.696 339.939 337.696C340.414 337.696 340.787 337.792 341.059 337.984ZM338.179 341.352C338.179 341.677 338.291 341.941 338.515 342.144C338.739 342.341 339.001 342.44 339.299 342.44C339.614 342.44 339.878 342.341 340.091 342.144C340.31 341.947 340.419 341.683 340.419 341.352C340.419 341.016 340.31 340.749 340.091 340.552C339.878 340.355 339.614 340.256 339.299 340.256C338.985 340.256 338.718 340.355 338.499 340.552C338.286 340.749 338.179 341.016 338.179 341.352ZM342.268 342.88C342.161 342.773 342.108 342.643 342.108 342.488C342.108 342.333 342.161 342.203 342.268 342.096C342.375 341.984 342.505 341.928 342.66 341.928C342.815 341.928 342.945 341.984 343.052 342.096C343.164 342.203 343.22 342.333 343.22 342.488C343.22 342.643 343.164 342.773 343.052 342.88C342.945 342.987 342.815 343.04 342.66 343.04C342.505 343.04 342.375 342.987 342.268 342.88ZM342.26 340.064C342.153 339.957 342.1 339.827 342.1 339.672C342.1 339.517 342.153 339.387 342.26 339.28C342.367 339.168 342.497 339.112 342.652 339.112C342.807 339.112 342.937 339.168 343.044 339.28C343.156 339.387 343.212 339.517 343.212 339.672C343.212 339.827 343.156 339.957 343.044 340.064C342.937 340.171 342.807 340.224 342.652 340.224C342.497 340.224 342.367 340.171 342.26 340.064ZM344.948 339.68L344.164 339.584C344.159 339.536 344.156 339.467 344.156 339.376C344.156 338.912 344.319 338.517 344.644 338.192C344.97 337.861 345.404 337.696 345.948 337.696C346.487 337.696 346.914 337.851 347.228 338.16C347.543 338.464 347.7 338.84 347.7 339.288C347.7 339.944 347.375 340.477 346.724 340.888L345.7 341.544C345.332 341.779 345.122 342.021 345.068 342.272H347.732V343H344.1C344.111 342.563 344.21 342.179 344.396 341.848C344.588 341.517 344.9 341.213 345.332 340.936L346.196 340.376C346.671 340.072 346.908 339.712 346.908 339.296C346.908 339.04 346.823 338.824 346.652 338.648C346.482 338.472 346.242 338.384 345.932 338.384C345.607 338.384 345.359 338.483 345.188 338.68C345.018 338.877 344.932 339.133 344.932 339.448C344.932 339.496 344.938 339.573 344.948 339.68ZM348.511 342.816L348.767 342.168C349.039 342.333 349.353 342.416 349.711 342.416C350.303 342.416 350.745 342.248 351.039 341.912C351.337 341.571 351.495 341.125 351.511 340.576C351.409 340.763 351.241 340.92 351.007 341.048C350.777 341.176 350.497 341.24 350.167 341.24C349.687 341.24 349.268 341.085 348.911 340.776C348.553 340.461 348.375 340.032 348.375 339.488C348.375 338.965 348.561 338.536 348.935 338.2C349.313 337.864 349.764 337.696 350.287 337.696C350.841 337.696 351.316 337.899 351.711 338.304C352.105 338.709 352.303 339.301 352.303 340.08C352.303 341.051 352.084 341.8 351.647 342.328C351.215 342.856 350.569 343.12 349.711 343.12C349.508 343.12 349.289 343.091 349.055 343.032C348.82 342.973 348.639 342.901 348.511 342.816ZM351.407 339.472C351.407 339.152 351.295 338.891 351.071 338.688C350.847 338.485 350.585 338.384 350.287 338.384C349.983 338.384 349.719 338.485 349.495 338.688C349.276 338.885 349.167 339.147 349.167 339.472C349.167 339.808 349.276 340.075 349.495 340.272C349.713 340.469 349.977 340.568 350.287 340.568C350.591 340.568 350.852 340.469 351.071 340.272C351.295 340.069 351.407 339.803 351.407 339.472Z" fill="#6C757D"/>
<path d="M307.152 13.404H306.216V12.156C305.44 12.076 304.828 11.808 304.38 11.352C303.932 10.888 303.672 10.364 303.6 9.78L304.74 9.42C304.78 9.836 304.924 10.2 305.172 10.512C305.42 10.824 305.768 11.02 306.216 11.1V8.592L305.916 8.532C305.292 8.404 304.804 8.152 304.452 7.776C304.1 7.4 303.924 6.924 303.924 6.348C303.924 5.772 304.136 5.268 304.56 4.836C304.992 4.404 305.544 4.148 306.216 4.068V2.808H307.152V4.08C307.816 4.168 308.324 4.4 308.676 4.776C309.036 5.144 309.276 5.564 309.396 6.036L308.316 6.432C308.276 6.168 308.156 5.912 307.956 5.664C307.756 5.416 307.488 5.244 307.152 5.148V7.608L307.332 7.644C307.988 7.772 308.508 8.04 308.892 8.448C309.276 8.856 309.468 9.332 309.468 9.876C309.468 10.444 309.264 10.944 308.856 11.376C308.448 11.808 307.88 12.068 307.152 12.156V13.404ZM308.292 9.936C308.292 9.672 308.196 9.436 308.004 9.228C307.812 9.02 307.528 8.872 307.152 8.784V11.1C307.528 11.028 307.812 10.888 308.004 10.68C308.196 10.472 308.292 10.224 308.292 9.936ZM305.112 6.3C305.112 6.884 305.48 7.248 306.216 7.392V5.112C305.872 5.176 305.6 5.316 305.4 5.532C305.208 5.748 305.112 6.004 305.112 6.3ZM310.704 11.724L311.088 10.752C311.496 11 311.968 11.124 312.504 11.124C313.392 11.124 314.056 10.872 314.496 10.368C314.944 9.856 315.18 9.188 315.204 8.364C315.052 8.644 314.8 8.88 314.448 9.072C314.104 9.264 313.684 9.36 313.188 9.36C312.468 9.36 311.84 9.128 311.304 8.664C310.768 8.192 310.5 7.548 310.5 6.732C310.5 5.948 310.78 5.304 311.34 4.8C311.908 4.296 312.584 4.044 313.368 4.044C314.2 4.044 314.912 4.348 315.504 4.956C316.096 5.564 316.392 6.452 316.392 7.62C316.392 9.076 316.064 10.2 315.408 10.992C314.76 11.784 313.792 12.18 312.504 12.18C312.2 12.18 311.872 12.136 311.52 12.048C311.168 11.96 310.896 11.852 310.704 11.724ZM315.048 6.708C315.048 6.228 314.88 5.836 314.544 5.532C314.208 5.228 313.816 5.076 313.368 5.076C312.912 5.076 312.516 5.228 312.18 5.532C311.852 5.828 311.688 6.22 311.688 6.708C311.688 7.212 311.852 7.612 312.18 7.908C312.508 8.204 312.904 8.352 313.368 8.352C313.824 8.352 314.216 8.204 314.544 7.908C314.88 7.604 315.048 7.204 315.048 6.708ZM323.234 4.476L322.874 5.436C322.49 5.212 322.026 5.1 321.482 5.1C320.69 5.1 320.046 5.36 319.55 5.88C319.062 6.4 318.794 7.068 318.746 7.884C318.922 7.596 319.186 7.356 319.538 7.164C319.898 6.972 320.318 6.876 320.798 6.876C321.59 6.876 322.23 7.112 322.718 7.584C323.214 8.056 323.462 8.704 323.462 9.528C323.462 10.336 323.182 10.98 322.622 11.46C322.062 11.94 321.382 12.18 320.582 12.18C319.75 12.18 319.034 11.88 318.434 11.28C317.842 10.672 317.546 9.772 317.546 8.58C317.546 7.172 317.922 6.064 318.674 5.256C319.426 4.448 320.386 4.044 321.554 4.044C322.266 4.044 322.826 4.188 323.234 4.476ZM318.914 9.528C318.914 10.016 319.082 10.412 319.418 10.716C319.754 11.012 320.146 11.16 320.594 11.16C321.066 11.16 321.462 11.012 321.782 10.716C322.11 10.42 322.274 10.024 322.274 9.528C322.274 9.024 322.11 8.624 321.782 8.328C321.462 8.032 321.066 7.884 320.594 7.884C320.122 7.884 319.722 8.032 319.394 8.328C319.074 8.624 318.914 9.024 318.914 9.528ZM324.617 11.232C324.617 11.016 324.701 10.828 324.869 10.668C325.037 10.508 325.245 10.428 325.493 10.428C325.765 10.428 325.993 10.528 326.177 10.728C326.369 10.928 326.465 11.208 326.465 11.568C326.465 12.288 326.281 12.844 325.913 13.236C325.545 13.628 325.137 13.852 324.689 13.908V13.284C324.977 13.22 325.213 13.06 325.397 12.804C325.581 12.556 325.677 12.284 325.685 11.988C325.629 12.028 325.541 12.048 325.421 12.048C325.189 12.048 324.997 11.976 324.845 11.832C324.693 11.68 324.617 11.48 324.617 11.232ZM330.548 7.536C330.964 7.528 331.308 7.408 331.58 7.176C331.852 6.944 331.988 6.64 331.988 6.264C331.988 5.912 331.856 5.616 331.592 5.376C331.328 5.136 330.98 5.016 330.548 5.016C330.116 5.016 329.768 5.136 329.504 5.376C329.24 5.616 329.108 5.912 329.108 6.264C329.108 6.64 329.244 6.944 329.516 7.176C329.788 7.408 330.132 7.528 330.548 7.536ZM329.348 10.788C329.644 11.036 330.044 11.16 330.548 11.16C331.052 11.16 331.448 11.036 331.736 10.788C332.032 10.54 332.18 10.228 332.18 9.852C332.18 9.468 332.032 9.152 331.736 8.904C331.448 8.648 331.052 8.52 330.548 8.52C330.044 8.52 329.644 8.648 329.348 8.904C329.06 9.152 328.916 9.468 328.916 9.852C328.916 10.228 329.06 10.54 329.348 10.788ZM332.612 11.556C332.108 11.972 331.42 12.18 330.548 12.18C329.676 12.18 328.988 11.972 328.484 11.556C327.98 11.132 327.728 10.596 327.728 9.948C327.728 9.492 327.864 9.096 328.136 8.76C328.416 8.416 328.772 8.172 329.204 8.028C328.836 7.892 328.532 7.66 328.292 7.332C328.052 6.996 327.932 6.62 327.932 6.204C327.932 5.572 328.18 5.056 328.676 4.656C329.172 4.248 329.796 4.044 330.548 4.044C331.3 4.044 331.924 4.248 332.42 4.656C332.916 5.056 333.164 5.572 333.164 6.204C333.164 6.612 333.044 6.984 332.804 7.32C332.564 7.656 332.26 7.892 331.892 8.028C332.324 8.164 332.676 8.404 332.948 8.748C333.228 9.092 333.368 9.492 333.368 9.948C333.368 10.596 333.116 11.132 332.612 11.556ZM339.638 4.224V5.352C339.438 5.512 339.242 5.684 339.05 5.868C338.858 6.052 338.602 6.348 338.282 6.756C337.97 7.164 337.694 7.596 337.454 8.052C337.214 8.508 336.986 9.088 336.77 9.792C336.562 10.488 336.422 11.224 336.35 12H335.138C335.186 11.384 335.282 10.788 335.426 10.212C335.57 9.628 335.738 9.12 335.93 8.688C336.122 8.256 336.326 7.852 336.542 7.476C336.766 7.092 336.982 6.772 337.19 6.516C337.406 6.252 337.598 6.028 337.766 5.844C337.942 5.66 338.082 5.524 338.186 5.436L338.342 5.304H333.962V4.224H339.638ZM340.504 11.724L340.888 10.752C341.296 11 341.768 11.124 342.304 11.124C343.192 11.124 343.856 10.872 344.296 10.368C344.744 9.856 344.98 9.188 345.004 8.364C344.852 8.644 344.6 8.88 344.248 9.072C343.904 9.264 343.484 9.36 342.988 9.36C342.268 9.36 341.64 9.128 341.104 8.664C340.568 8.192 340.3 7.548 340.3 6.732C340.3 5.948 340.58 5.304 341.14 4.8C341.708 4.296 342.384 4.044 343.168 4.044C344 4.044 344.712 4.348 345.304 4.956C345.896 5.564 346.192 6.452 346.192 7.62C346.192 9.076 345.864 10.2 345.208 10.992C344.56 11.784 343.592 12.18 342.304 12.18C342 12.18 341.672 12.136 341.32 12.048C340.968 11.96 340.696 11.852 340.504 11.724ZM344.848 6.708C344.848 6.228 344.68 5.836 344.344 5.532C344.008 5.228 343.616 5.076 343.168 5.076C342.712 5.076 342.316 5.228 341.98 5.532C341.652 5.828 341.488 6.22 341.488 6.708C341.488 7.212 341.652 7.612 341.98 7.908C342.308 8.204 342.704 8.352 343.168 8.352C343.624 8.352 344.016 8.204 344.344 7.908C344.68 7.604 344.848 7.204 344.848 6.708ZM347.393 11.82C347.233 11.66 347.153 11.464 347.153 11.232C347.153 11 347.233 10.804 347.393 10.644C347.553 10.476 347.749 10.392 347.981 10.392C348.213 10.392 348.409 10.476 348.569 10.644C348.737 10.804 348.821 11 348.821 11.232C348.821 11.464 348.737 11.66 348.569 11.82C348.409 11.98 348.213 12.06 347.981 12.06C347.749 12.06 347.553 11.98 347.393 11.82ZM352.364 8.388L351.788 7.416L354.08 5.304H350.36V4.224H355.64V5.28L353.42 7.332C354.052 7.332 354.608 7.54 355.088 7.956C355.576 8.372 355.82 8.952 355.82 9.696C355.82 10.384 355.568 10.972 355.064 11.46C354.56 11.948 353.872 12.192 353 12.192C352.144 12.192 351.456 11.956 350.936 11.484C350.424 11.004 350.148 10.424 350.108 9.744L351.26 9.48C351.284 9.984 351.456 10.392 351.776 10.704C352.104 11.008 352.508 11.16 352.988 11.16C353.5 11.16 353.9 11.024 354.188 10.752C354.484 10.472 354.632 10.128 354.632 9.72C354.632 9.248 354.476 8.888 354.164 8.64C353.852 8.392 353.48 8.268 353.048 8.268C352.816 8.268 352.588 8.308 352.364 8.388ZM356.717 9.888L357.845 9.552C357.877 10.032 358.053 10.42 358.373 10.716C358.701 11.012 359.109 11.16 359.597 11.16C360.069 11.16 360.465 11.016 360.785 10.728C361.105 10.44 361.265 10.06 361.265 9.588C361.265 9.076 361.105 8.68 360.785 8.4C360.465 8.12 360.065 7.98 359.585 7.98C359.001 7.98 358.529 8.168 358.169 8.544C358.057 8.504 357.873 8.432 357.617 8.328C357.361 8.224 357.161 8.144 357.017 8.088L358.025 4.224H362.129V5.304H358.805L358.229 7.536C358.573 7.152 359.101 6.96 359.813 6.96C360.589 6.96 361.221 7.192 361.709 7.656C362.205 8.12 362.453 8.748 362.453 9.54C362.453 10.292 362.189 10.924 361.661 11.436C361.133 11.94 360.445 12.192 359.597 12.192C358.797 12.192 358.129 11.968 357.593 11.52C357.065 11.072 356.773 10.528 356.717 9.888Z" fill="#6C757D"/>
<g filter="url(#filter0_d)">
<path d="M0 194.173L6.05816 208.646L15.7512 202.158L25.4443 274.525L35.1373 249.571L44.2246 239.589L54.5234 208.646L63.6107 135.282L73.3037 133.285L84.2084 138.276L93.2956 144.764L102.989 224.118L112.682 217.131L122.375 267.538L132.068 246.576L141.761 264.044L161.147 243.083L170.84 194.173L180.533 172.713L200.525 288L209.612 175.208L219.911 131.788L228.998 175.208L239.297 162.731L248.384 144.764L258.078 94.8564L268.95 36L278.675 52.9337L287.763 98.3499L296.85 105.337L307.149 103.341L316.842 71.3996L325.929 81.8803L336.228 17L346.527 23.9871L375 76.8895" stroke="#5DD35D" stroke-width="2"/>
</g>
<line y1="325.5" x2="375" y2="325.5" stroke="#DFE2E4"/>
<line x1="24.5" y1="325" x2="24.5" y2="333" stroke="#DFE2E4"/>
<line x1="184.5" y1="325" x2="184.5" y2="333" stroke="#DFE2E4"/>
<line x1="104.5" y1="325" x2="104.5" y2="333" stroke="#DFE2E4"/>
<line x1="264.5" y1="325" x2="264.5" y2="333" stroke="#DFE2E4"/>
<line x1="344.5" y1="325" x2="344.5" y2="333" stroke="#DFE2E4"/>
<defs>
<filter id="filter0_d" x="-8.92249" y="7.28894" width="392.803" height="288.882" filterUnits="userSpaceOnUse" color-interpolation-filters="sRGB">
<feFlood flood-opacity="0" result="BackgroundImageFix"/>
<feColorMatrix in="SourceAlpha" type="matrix" values="0 0 0 0 0 0 0 0 0 0 0 0 0 0 0 0 0 0 127 0" result="hardAlpha"/>
<feOffset/>
<feGaussianBlur stdDeviation="4"/>
<feColorMatrix type="matrix" values="0 0 0 0 0 0 0 0 0 0.388235 0 0 0 0 0.960784 0 0 0 0.24 0"/>
<feBlend mode="normal" in2="BackgroundImageFix" result="effect1_dropShadow"/>
<feBlend mode="normal" in="SourceGraphic" in2="effect1_dropShadow" result="shape"/>
</filter>
</defs>
</svg>
