<svg width="26" height="24" viewBox="0 0 26 24" fill="none" xmlns="http://www.w3.org/2000/svg">
<path d="M24.3678 10.4685C25.3138 10.4685 25.7087 9.25314 24.9403 8.6929L13.2487 0.188277C13.0818 0.0659484 12.8802 0 12.6732 0C12.4662 0 12.2646 0.0659484 12.0976 0.188277L0.406083 8.6929C-0.362333 9.25008 0.0325898 10.4685 0.98163 10.4685H2.87665V21.9182H0.672426C0.537724 21.9182 0.427513 22.0284 0.427513 22.1631V23.7551C0.427513 23.8898 0.537724 24 0.672426 24H24.674C24.8087 24 24.9189 23.8898 24.9189 23.7551V22.1631C24.9189 22.0284 24.8087 21.9182 24.674 21.9182H22.4697V10.4685H24.3678ZM12.6732 2.34658L20.9727 8.3837H4.37368L12.6732 2.34658ZM5.08087 10.4685H8.66273V21.9182H5.08087V10.4685ZM10.867 10.4685H14.4488V21.9182H10.867V10.4685ZM20.2655 21.9182H16.653V10.4685H20.2655V21.9182Z" fill="#5DD35D"/>
</svg>
