<svg width="24" height="24" viewBox="0 0 24 24" fill="none" xmlns="http://www.w3.org/2000/svg">
<path d="M23.0584 19.5859C22.4564 18.2387 21.5827 17.015 20.4861 15.9829C19.3928 14.9479 18.0977 14.1226 16.6723 13.5528C16.6595 13.5467 16.6468 13.5437 16.634 13.5377C18.6223 12.1809 19.9148 9.97085 19.9148 7.47739C19.9148 3.34673 16.3723 0 12 0C7.62769 0 4.08516 3.34673 4.08516 7.47739C4.08516 9.97085 5.3777 12.1809 7.36599 13.5407C7.35322 13.5467 7.34046 13.5497 7.32769 13.5558C5.89791 14.1256 4.61494 14.9427 3.51389 15.9859C2.41829 17.0188 1.54476 18.2423 0.941563 19.5889C0.348978 20.9073 0.0293836 22.3207 7.98059e-05 23.7528C-0.000772013 23.7849 0.0052025 23.817 0.0176515 23.8469C0.0301005 23.8769 0.0487719 23.9042 0.0725657 23.9272C0.0963595 23.9503 0.124794 23.9686 0.156194 23.9811C0.187594 23.9936 0.221325 24 0.255397 24H2.17028C2.3107 24 2.4224 23.8945 2.4256 23.7648C2.48942 21.4372 3.47878 19.2573 5.2277 17.605C7.03727 15.8955 9.44044 14.9548 12 14.9548C14.5596 14.9548 16.9627 15.8955 18.7723 17.605C20.5212 19.2573 21.5106 21.4372 21.5744 23.7648C21.5776 23.8975 21.6893 24 21.8297 24H23.7446C23.7787 24 23.8124 23.9936 23.8438 23.9811C23.8752 23.9686 23.9036 23.9503 23.9274 23.9272C23.9512 23.9042 23.9699 23.8769 23.9823 23.8469C23.9948 23.817 24.0008 23.7849 23.9999 23.7528C23.968 22.3116 23.6521 20.9095 23.0584 19.5859ZM12 12.6633C10.5351 12.6633 9.1564 12.1236 8.11917 11.1437C7.08195 10.1638 6.51067 8.86131 6.51067 7.47739C6.51067 6.09347 7.08195 4.79095 8.11917 3.81106C9.1564 2.83116 10.5351 2.29146 12 2.29146C13.4649 2.29146 14.8436 2.83116 15.8808 3.81106C16.9181 4.79095 17.4893 6.09347 17.4893 7.47739C17.4893 8.86131 16.9181 10.1638 15.8808 11.1437C14.8436 12.1236 13.4649 12.6633 12 12.6633Z" fill="#5DD35D"/>
</svg>
