<svg width="20" height="24" viewBox="0 0 20 24" fill="none" xmlns="http://www.w3.org/2000/svg">
<path d="M9.84615 24C11.2 24 12.3077 22.8923 12.3077 21.5385H7.38462C7.38462 22.8923 8.49231 24 9.84615 24ZM17.2308 16.6154V10.4615C17.2308 6.68308 15.2246 3.52 11.6923 2.68308V0H8V2.68308C4.48 3.52 2.46154 6.67077 2.46154 10.4615V16.6154L0 19.0769V20.3077H19.6923V19.0769L17.2308 16.6154ZM14.7692 17.8462H4.92308V10.4615C4.92308 7.40923 6.78154 4.92308 9.84615 4.92308C12.9108 4.92308 14.7692 7.40923 14.7692 10.4615V17.8462Z" fill="#5DD35D"/>
</svg>
